<?xml version="1.0" standalone="no"?>
<!DOCTYPE svg PUBLIC "-//W3C//DTD SVG 20010904//EN"
 "http://www.w3.org/TR/2001/REC-SVG-20010904/DTD/svg10.dtd">
<svg version="1.0" xmlns="http://www.w3.org/2000/svg"
 width="953.000000pt" height="953.000000pt" viewBox="0 0 953.000000 953.000000"
 preserveAspectRatio="xMidYMid meet">
<metadata>
Created by potrace 1.14, written by Peter Selinger 2001-2017
</metadata>
<g transform="translate(0.000000,953.000000) scale(0.100000,-0.100000)"
fill="#000000" stroke="none">
<path d="M4730 9524 c-461 -41 -676 -82 -1080 -202 -155 -46 -509 -194 -711
-297 -255 -131 -603 -355 -804 -519 -217 -178 -408 -356 -529 -495 -333 -384
-586 -760 -763 -1136 -55 -117 -117 -274 -129 -325 0 -3 -10 -25 -21 -50 -11
-25 -37 -106 -58 -180 -21 -74 -44 -154 -51 -177 -8 -24 -16 -57 -20 -75 -8
-44 -12 -62 -14 -65 -3 -4 -5 -10 -15 -63 -10 -50 -10 -49 -17 -70 -10 -26
-29 -123 -34 -170 -3 -25 -9 -65 -15 -90 -20 -93 -24 -130 -34 -275 -2 -39 -8
-91 -14 -116 -11 -50 -25 -331 -25 -519 1 -131 31 -455 65 -675 35 -231 198
-806 266 -939 9 -16 17 -50 20 -75 2 -25 7 -53 10 -61 3 -8 7 -19 9 -25 1 -5
10 -30 19 -55 9 -25 18 -56 21 -70 10 -64 28 -136 37 -148 7 -9 6 -11 -7 -6
-14 5 -13 -3 9 -51 14 -32 25 -60 25 -62 0 -3 6 -3 14 0 9 4 20 -6 31 -26 9
-18 29 -52 45 -77 16 -25 34 -55 39 -67 67 -149 153 -277 276 -408 63 -68 115
-149 115 -180 0 -8 6 -15 14 -15 7 0 16 -9 19 -21 3 -12 10 -18 16 -14 6 3 11
2 11 -4 0 -5 36 -47 80 -93 44 -46 80 -86 80 -90 0 -5 3 -8 8 -8 4 0 20 -19
37 -41 16 -22 44 -49 62 -60 18 -11 52 -48 77 -82 61 -84 86 -111 192 -203
158 -138 217 -186 339 -276 153 -112 493 -318 585 -354 25 -10 66 -30 91 -46
57 -34 213 -108 229 -108 7 0 25 -10 42 -21 29 -21 102 -51 223 -91 33 -11 83
-29 110 -39 28 -10 104 -32 170 -49 66 -17 140 -37 165 -45 78 -25 173 -44
237 -49 34 -2 70 -9 80 -14 10 -5 39 -10 65 -11 25 -1 88 -8 140 -15 51 -8
159 -13 241 -12 81 0 147 -3 147 -7 0 -5 6 -5 13 0 12 7 253 15 427 14 47 -1
121 4 165 10 44 5 103 12 130 15 53 6 137 19 170 27 11 3 58 13 105 22 47 10
90 21 95 25 10 7 51 20 90 27 11 2 51 13 90 25 38 12 78 23 87 25 9 1 36 10
60 19 24 8 66 22 93 31 28 8 57 19 66 23 8 4 50 17 92 29 42 11 122 41 179 67
56 25 127 55 158 66 30 12 57 24 60 28 3 4 30 19 60 34 53 27 74 39 190 113
30 19 77 46 105 60 73 38 325 215 333 235 2 4 8 8 13 8 14 0 138 84 174 117
17 15 64 57 105 92 117 101 389 378 526 536 38 44 74 85 80 90 10 9 75 100
169 237 85 123 173 290 300 567 54 118 115 300 115 344 0 18 6 43 13 57 8 15
10 41 7 68 -4 23 -3 42 1 42 23 0 18 418 -6 548 -14 76 -69 221 -107 285 -38
63 -158 187 -181 187 -6 0 -18 6 -26 14 -73 64 -421 205 -570 231 -19 3 -37 8
-41 10 -3 2 -33 7 -66 10 -32 4 -62 9 -65 11 -9 5 -235 4 -274 -1 -81 -12
-112 -18 -135 -28 -14 -6 -27 -11 -30 -12 -3 -1 -18 -7 -33 -13 -16 -7 -30
-12 -32 -12 -2 0 -43 -18 -91 -41 -49 -22 -102 -43 -118 -46 -17 -4 -47 -13
-66 -21 -19 -9 -41 -17 -48 -18 -6 -1 -40 -20 -75 -41 -34 -22 -89 -50 -122
-63 -33 -13 -67 -28 -75 -34 -8 -7 -33 -20 -55 -30 -41 -18 -92 -49 -205 -121
-37 -25 -124 -103 -202 -183 -124 -127 -189 -185 -326 -294 -149 -117 -451
-238 -682 -273 -57 -9 -287 -9 -343 0 -23 4 -55 9 -72 11 -67 10 -231 47 -247
55 -9 5 -49 21 -90 35 -176 63 -325 153 -439 263 -9 9 -33 30 -54 46 -21 17
-76 72 -122 124 -79 88 -115 141 -186 271 -16 30 -33 60 -37 65 -21 29 -76
215 -86 290 -3 28 -9 54 -12 59 -3 5 -7 27 -9 50 -3 23 -8 55 -12 71 -8 37 -7
254 3 430 9 154 58 365 106 452 44 82 114 173 208 271 45 48 82 90 82 93 0 4
4 9 9 11 5 2 51 43 102 92 124 118 167 144 480 289 68 31 183 63 264 72 32 3
63 9 67 11 11 7 125 7 213 0 118 -10 200 -26 296 -57 83 -27 286 -120 298
-137 3 -4 38 -28 76 -52 85 -54 124 -95 171 -177 45 -80 66 -82 126 -17 24 26
63 68 88 93 25 25 86 91 136 146 101 111 329 343 444 450 41 39 130 129 196
200 67 72 143 153 169 180 26 28 99 106 163 174 65 69 133 141 152 161 19 20
98 104 175 186 77 81 165 173 196 204 50 49 96 99 237 252 23 26 42 52 42 57
0 6 4 11 9 11 5 0 25 24 46 54 57 84 54 90 -149 289 -178 175 -251 237 -548
461 -431 327 -935 573 -1426 697 -283 72 -496 109 -852 149 -98 11 -550 21
-630 14z"/>
<path d="M8383 7038 c-212 -211 -415 -414 -451 -452 -183 -190 -692 -695 -727
-721 -51 -38 -69 -57 -129 -136 -27 -36 -83 -92 -125 -125 -41 -32 -101 -83
-132 -113 l-57 -54 56 -50 c185 -162 371 -230 632 -230 141 0 353 14 401 27
81 22 225 96 489 252 30 17 87 46 125 63 73 33 149 72 198 102 41 24 182 164
231 229 23 30 59 77 79 103 50 66 108 192 122 268 3 13 9 47 15 74 5 28 12 64
15 80 8 39 7 237 0 295 -18 137 -46 230 -119 401 -71 165 -194 369 -223 369
-8 0 -188 -172 -400 -382z"/>
</g>
</svg>
